<?xml version="1.0" encoding="UTF-8"?>
<svg width="32px" height="25px" viewBox="0 0 32 25" version="1.1" xmlns="http://www.w3.org/2000/svg" xmlns:xlink="http://www.w3.org/1999/xlink">
    <!-- Generator: Sketch 53.2 (72643) - https://sketchapp.com -->
    <title>Icon-AttractionsDfault</title>
    <desc>Created with Sketch.</desc>
    <g id="Desktop-1440px" stroke="none" stroke-width="1" fill="none" fill-rule="evenodd">
        <g id="Location" transform="translate(-861.000000, -1272.000000)" fill="#8F6936">
            <g id="TTD-Map" transform="translate(0.000000, 1088.000000)">
                <g id="TTD" transform="translate(188.000000, 71.000000)">
                    <g id="TTD-Tabs">
                        <g id="Attractions" transform="translate(624.000000, 81.000000)">
                            <g id="Icon-Camera" transform="translate(49.000000, 28.000000)">
                                <g id="Group-19" transform="translate(0.000000, 4.555932)">
                                    <path d="M28.6258503,6.29152542 L26.9931973,6.29152542 L26.9931973,7.91864407 L28.6258503,7.91864407 L28.6258503,6.29152542 Z M28.7130912,8.89491525 L26.7971129,8.89491525 C26.3043698,8.89491525 25.9047619,8.49640546 25.9047619,8.00555041 L25.9047619,6.09586264 C25.9047619,5.60468668 26.3044089,5.20677966 26.7971129,5.20677966 L28.7130912,5.20677966 C29.2057952,5.20677966 29.6054422,5.60468668 29.6054422,6.09586264 L29.6054422,8.00555041 C29.6054422,8.49640546 29.2058343,8.89491525 28.7130912,8.89491525 Z" id="Stroke-1" fill-rule="nonzero"></path>
                                    <path d="M10.8826753,2.60338983 C11.1733515,2.60338983 11.4089911,2.83889698 11.4089911,3.12940976 C11.4089911,3.41992255 11.1733515,3.65542969 10.8826753,3.65542969 L2.90389185,3.65542969 C1.88185048,3.65542969 1.05263158,4.4857947 1.05263158,5.51037964 L1.05263158,20.6319932 C1.05263158,21.6567533 1.88174348,22.4869432 2.90389185,22.4869432 L29.0958264,22.4869432 C30.1182226,22.4869432 30.9473684,21.6567873 30.9473684,20.6319932 L30.9473684,5.51037964 C30.9473684,4.48576069 30.1181156,3.65542969 29.0958264,3.65542969 L21.1173247,3.65542969 C20.8266485,3.65542969 20.5910089,3.41992255 20.5910089,3.12940976 C20.5910089,2.83889698 20.8266485,2.60338983 21.1173247,2.60338983 L29.0958264,2.60338983 C30.6999071,2.60338983 32,3.9051731 32,5.51037964 L32,20.6319932 C32,22.2373941 30.6999948,23.5389831 29.0958264,23.5389831 L2.90389185,23.5389831 C1.29995199,23.5389831 0,22.2373409 0,20.6319932 L0,5.51037964 C0,3.90522635 1.30003965,2.60338983 2.90389185,2.60338983 L10.8826753,2.60338983 Z" id="Stroke-3" fill-rule="nonzero"></path>
                                    <path d="M23.0748299,13.504803 C23.0748299,17.3694111 19.9318921,20.5016949 16.0544218,20.5016949 C12.1769515,20.5016949 9.03401361,17.3694111 9.03401361,13.504803 C9.03401361,9.6406642 12.177046,6.50847458 16.0544218,6.50847458 C19.9317975,6.50847458 23.0748299,9.6406642 23.0748299,13.504803 Z M21.0068027,13.4713144 C21.0068027,10.7069777 18.8074518,8.46101695 16.0879121,8.46101695 C15.7989091,8.46101695 15.5646259,8.69468222 15.5646259,8.98292293 C15.5646259,9.27116364 15.7989091,9.50482891 16.0879121,9.50482891 C18.2238427,9.50482891 19.9602302,11.2780149 19.9602302,13.4713144 C19.9602302,13.7595551 20.1945135,13.9932203 20.4835165,13.9932203 C20.7725195,13.9932203 21.0068027,13.7595551 21.0068027,13.4713144 Z" id="Combined-Shape" fill-rule="nonzero"></path>
                                    <path d="M9.62220848,10.7389831 C9.89848368,10.7389831 10.122449,10.9628407 10.122449,11.2389831 C10.122449,11.5151254 9.89848368,11.7389831 9.62220848,11.7389831 L0.717927575,11.7389831 C0.441652376,11.7389831 0.217687075,11.5151254 0.217687075,11.2389831 C0.217687075,10.9628407 0.441652376,10.7389831 0.717927575,10.7389831 L9.62220848,10.7389831 Z" id="Stroke-7" fill-rule="nonzero"></path>
                                    <path d="M22.0787467,11.7152542 C21.7872915,11.7152542 21.5510204,11.4724256 21.5510204,11.1728814 C21.5510204,10.8733371 21.7872915,10.6305085 22.0787467,10.6305085 L31.4722738,10.6305085 C31.7637289,10.6305085 32,10.8733371 32,11.1728814 C32,11.4724256 31.7637289,11.7152542 31.4722738,11.7152542 L22.0787467,11.7152542 Z" id="Stroke-9" fill-rule="nonzero"></path>
                                    <path d="M10.8942652,4.7092086 C10.757344,4.96773431 10.4387691,5.06524576 10.1827083,4.9270065 C9.92664743,4.78876725 9.83006569,4.46712569 9.96698692,4.20859998 L12.1959593,0 L20.0217278,0 L22.2507002,4.20859998 C22.3876214,4.46712569 22.2910396,4.78876725 22.0349788,4.9270065 C21.778918,5.06524576 21.4603431,4.96773431 21.3234219,4.7092086 L19.3915868,1.06164388 L12.8261003,1.06164388 L10.8942652,4.7092086 Z" id="Stroke-11" fill-rule="nonzero"></path>
                                    <path d="M24.2434658,2.49491525 C23.9587218,2.49491525 23.7278912,2.25208664 23.7278912,1.95254237 C23.7278912,1.6529981 23.9587218,1.41016949 24.2434658,1.41016949 L27.1306839,1.41016949 C27.4154279,1.41016949 27.6462585,1.6529981 27.6462585,1.95254237 C27.6462585,2.25208664 27.4154279,2.49491525 27.1306839,2.49491525 L24.2434658,2.49491525 Z" id="Stroke-13" fill-rule="nonzero"></path>
                                    <path d="M7.86537773,1.41016949 C8.15012175,1.41016949 8.38095238,1.6529981 8.38095238,1.95254237 C8.38095238,2.25208664 8.15012175,2.49491525 7.86537773,2.49491525 L4.97815968,2.49491525 C4.69341567,2.49491525 4.46258503,2.25208664 4.46258503,1.95254237 C4.46258503,1.6529981 4.69341567,1.41016949 4.97815968,1.41016949 L7.86537773,1.41016949 Z" id="Stroke-15" fill-rule="nonzero"></path>
                                </g>
                            </g>
                        </g>
                    </g>
                </g>
            </g>
        </g>
    </g>
</svg>