<?xml version="1.0" encoding="UTF-8"?>
<svg width="32px" height="27px" viewBox="0 0 32 27" version="1.1" xmlns="http://www.w3.org/2000/svg" xmlns:xlink="http://www.w3.org/1999/xlink">
    <!-- Generator: Sketch 53.2 (72643) - https://sketchapp.com -->
    <title>Icon-eat-&amp;-drinkDfault</title>
    <desc>Created with Sketch.</desc>
    <g id="Desktop-1440px" stroke="none" stroke-width="1" fill="none" fill-rule="evenodd">
        <g id="Location" transform="translate(-1121.000000, -1266.000000)" fill="#8F6936">
            <g id="TTD-Map" transform="translate(0.000000, 1088.000000)">
                <g id="TTD" transform="translate(188.000000, 71.000000)">
                    <g id="TTD-Tabs">
                        <g id="Eat-&amp;-Drink" transform="translate(884.000000, 81.000000)">
                            <g id="Icon-Eat&amp;drink" transform="translate(49.000000, 24.000000)">
                                <g id="Group-19" transform="translate(0.653061, 3.037288)">
                                    <path d="M1.28107345,6.82795484 C2.22541565,7.02591202 2.90204516,7.85922896 2.90204516,8.82305273 L2.90204516,23.8766752 C2.90204516,24.1700028 3.13845807,24.4067797 3.42857143,24.4067797 C3.71884241,24.4067797 3.95509769,24.1701188 3.95509769,23.8766752 L3.95509769,8.82360117 C3.95509769,7.85869686 4.63145651,7.02584863 5.57633414,6.82801423 C6.0053498,6.73784481 6.31292517,6.35864532 6.31292517,5.91795807 L6.31292517,0 C6.31292517,-0.299544271 6.55657973,-0.542372881 6.85714286,-0.542372881 C7.15770599,-0.542372881 7.40136054,-0.299544271 7.40136054,0 L7.40136054,5.91795807 C7.40136054,6.87071906 6.73417709,7.69326743 5.80052634,7.88949962 C5.3597601,7.98178543 5.04353307,8.37117805 5.04353307,8.82360117 L5.04353307,23.8766752 C5.04353307,24.7679698 4.32121743,25.4915254 3.42857143,25.4915254 C2.53612634,25.4915254 1.81360979,24.7678964 1.81360979,23.8766752 L1.81360979,8.82305273 C1.81360979,8.37531482 1.5021427,7.98806737 1.06778314,7.89179016 L1.05643694,7.88940449 C0.12336946,7.69321584 -0.544217687,6.87057789 -0.544217687,5.91795807 L-0.544217687,0 C-0.544217687,-0.299544271 -0.300563129,-0.542372881 0,-0.542372881 C0.300563129,-0.542372881 0.544217687,-0.299544271 0.544217687,0 L0.544217687,5.91795807 C0.544217687,6.35515527 0.847582803,6.73220889 1.27163637,6.8259766 L1.28107345,6.82795484 Z" id="Stroke-1" fill-rule="nonzero"></path>
                                    <path d="M1.68707483,0 C1.68707483,-0.299544271 1.93072939,-0.542372881 2.23129252,-0.542372881 C2.53185565,-0.542372881 2.7755102,-0.299544271 2.7755102,0 L2.7755102,5.09830508 C2.7755102,5.39784936 2.53185565,5.64067797 2.23129252,5.64067797 C1.93072939,5.64067797 1.68707483,5.39784936 1.68707483,5.09830508 L1.68707483,0 Z" id="Stroke-3" fill-rule="nonzero"></path>
                                    <path d="M3.97278912,0 C3.97278912,-0.299544271 4.21644367,-0.542372881 4.5170068,-0.542372881 C4.81756993,-0.542372881 5.06122449,-0.299544271 5.06122449,0 L5.06122449,5.09830508 C5.06122449,5.39784936 4.81756993,5.64067797 4.5170068,5.64067797 C4.21644367,5.64067797 3.97278912,5.39784936 3.97278912,5.09830508 L3.97278912,0 Z" id="Stroke-5" fill-rule="nonzero"></path>
                                    <path d="M11.9727891,23.8766752 C11.9727891,24.1704518 12.2078758,24.4067797 12.4953321,24.4067797 C12.7829452,24.4067797 13.017875,24.1705678 13.017875,23.8766752 L13.017875,15.402157 L13.0178835,15.3991286 L13.0230667,14.4740039 C13.0274086,13.6736397 13.6764128,13.0249731 14.4774334,13.0249731 L14.8027211,13.0249731 L14.8027211,6.88677999 C14.8027211,4.41172002 14.1231152,2.69873394 13.0033297,1.58502958 C12.6728372,1.25633185 12.3233372,1.00132709 11.9727891,0.810501222 L11.9727891,23.8766752 Z M14.1063104,15.4036712 L14.1063104,23.8766752 C14.1063104,24.7675208 13.3862353,25.4915254 12.4953321,25.4915254 C11.6046292,25.4915254 10.8843537,24.7674473 10.8843537,23.8766752 L10.8843537,-0.682849719 L11.5517458,-0.528298298 C11.5997634,-0.517178624 11.6747523,-0.495998652 11.7729236,-0.462564038 C11.9276858,-0.409855992 12.0977718,-0.340520309 12.2793172,-0.252306231 C12.7904675,-0.00393492274 13.2991017,0.346703108 13.7721805,0.817212766 C15.1013746,2.13918855 15.8911565,4.12987938 15.8911565,6.88677999 L15.8911565,14.1097189 L14.4774334,14.1097189 C14.2772655,14.1097189 14.1126014,14.2742973 14.1114857,14.4799646 L14.1063104,15.4036712 Z" id="Stroke-7" fill-rule="nonzero"></path>
                                    <path d="M14.0952381,14.8610169 C14.0952381,15.1605612 13.8515835,15.4033898 13.5510204,15.4033898 C13.2504573,15.4033898 13.0068027,15.1605612 13.0068027,14.8610169 L13.0068027,9.97966102 C13.0068027,9.68011675 13.2504573,9.43728814 13.5510204,9.43728814 C13.8515835,9.43728814 14.0952381,9.68011675 14.0952381,9.97966102 L14.0952381,14.8610169 Z" id="Stroke-9" fill-rule="nonzero"></path>
                                    <path d="M28.8813801,0.243514421 C28.7464333,-0.0241409516 28.8547529,-0.350143621 29.1233187,-0.484632922 C29.3918845,-0.619122223 29.718996,-0.511169793 29.8539427,-0.243514421 C29.899802,-0.152556452 29.9766515,0.0102124063 30.0741511,0.234217295 C30.2351591,0.60413261 30.3958759,1.01376127 30.5459186,1.45273501 C30.9289853,2.57345717 31.1781724,3.69058969 31.2287807,4.74701645 C31.2991692,6.21634721 30.9782326,7.46864216 30.1657687,8.40829072 C29.2133679,9.50978215 27.6577418,10.0881356 25.4694515,10.0881356 C23.2811638,10.0881356 21.7255253,9.50978377 20.7730972,8.40829751 C19.9606099,7.46865324 19.6396378,6.21636114 19.7099838,4.74703201 C19.7605629,3.69057741 20.0097292,2.57341495 20.3927792,1.4526663 C20.5428053,1.01371184 20.7035043,0.604102305 20.8644946,0.234205125 C20.9619834,0.010211037 21.0388246,-0.152549764 21.084679,-0.243503282 C21.2196196,-0.511161745 21.5467286,-0.619121668 21.8152975,-0.484638519 C22.0838663,-0.35015537 22.1921935,-0.0241551816 22.0572529,0.243503282 C22.0489555,0.2599614 22.0315784,0.295520979 22.0064196,0.348811171 C21.9634032,0.439926182 21.915178,0.546069208 21.8630411,0.665860865 C21.7132342,1.01006281 21.563136,1.39265166 21.4230847,1.80242132 C21.0702939,2.83463587 20.8422683,3.85701201 20.7971823,4.79873071 C20.7389927,6.01414734 20.9914547,6.99914337 21.5976213,7.70017707 C22.3217842,8.53767385 23.5744572,9.00338983 25.4694515,9.00338983 C27.3644434,9.00338983 28.6170985,8.53767548 29.3412328,7.70018385 C29.9473754,6.99915445 30.1998083,6.01416126 30.1415836,4.79874627 C30.0964716,3.85705172 29.8684268,2.83470229 29.5156203,1.80251102 C29.3755533,1.39272265 29.2254381,1.01011509 29.0756143,0.665895343 C29.0234714,0.546097417 28.9752408,0.439948682 28.9322194,0.348828635 C28.9070576,0.295535404 28.8896785,0.259973679 28.8813801,0.243514421 Z" id="Stroke-11" fill-rule="nonzero"></path>
                                    <path d="M24.1632653,9.54576271 C24.1632653,9.24621844 24.4069199,9.00338983 24.707483,9.00338983 C25.0080461,9.00338983 25.2517007,9.24621844 25.2517007,9.54576271 L25.2517007,23.5280467 L24.7242412,23.5442415 C24.7162421,23.5444871 24.6985499,23.5451441 24.6718204,23.5463199 C24.6258922,23.5483404 24.5722233,23.5510948 24.5114713,23.5546899 C24.3365112,23.5650435 24.1409902,23.5800397 23.9302078,23.6005155 C23.3293663,23.6588822 22.7292357,23.7490771 22.1736439,23.8768732 C21.9062403,23.9383809 21.6585085,24.0068174 21.4328774,24.0813559 L29.8231293,24.0813559 C30.1236924,24.0813559 30.3673469,24.3241845 30.3673469,24.6237288 C30.3673469,24.9232731 30.1236924,25.1661017 29.8231293,25.1661017 L18.5964545,25.1661017 L19.1336942,24.3309928 C19.6054906,23.5976119 20.5831553,23.1294517 21.9288676,22.8199137 C22.5353752,22.680406 23.1803512,22.5834712 23.8246162,22.5208863 C23.9420627,22.5094773 24.0551864,22.4996531 24.1632653,22.4912839 L24.1632653,9.54576271 Z" id="Stroke-13" fill-rule="nonzero"></path>
                                    <path d="M25.6326531,14.8610169 C25.6326531,14.5614727 25.8763076,14.3186441 26.1768707,14.3186441 C26.4774339,14.3186441 26.7210884,14.5614727 26.7210884,14.8610169 L26.7210884,21.9135743 C26.7210884,22.2131185 26.4774339,22.4559471 26.1768707,22.4559471 C25.8763076,22.4559471 25.6326531,22.2131185 25.6326531,21.9135743 L25.6326531,14.8610169 Z" id="Stroke-15" fill-rule="nonzero"></path>
                                    <path d="M20.3537415,4.39322034 C20.0531784,4.39322034 19.8095238,4.15039173 19.8095238,3.85084746 C19.8095238,3.55130319 20.0531784,3.30847458 20.3537415,3.30847458 L30.585034,3.30847458 C30.8855971,3.30847458 31.1292517,3.55130319 31.1292517,3.85084746 C31.1292517,4.15039173 30.8855971,4.39322034 30.585034,4.39322034 L20.3537415,4.39322034 Z" id="Stroke-17" fill-rule="nonzero"></path>
                                </g>
                            </g>
                        </g>
                    </g>
                </g>
            </g>
        </g>
    </g>
</svg>