<?xml version="1.0" encoding="UTF-8"?>
<svg width="40px" height="36px" viewBox="0 0 40 36" version="1.1" xmlns="http://www.w3.org/2000/svg" xmlns:xlink="http://www.w3.org/1999/xlink">
    <!-- Generator: Sketch 53.2 (72643) - https://sketchapp.com -->
    <title>Icon-entertainmentDfault</title>
    <desc>Created with Sketch.</desc>
    <defs>
        <polygon id="path-1" points="0.000115561092 0.0404150943 39.9820704 0.0404150943 39.9820704 35.9999491 0.000115561092 35.9999491"></polygon>
    </defs>
    <g id="Desktop-1440px" stroke="none" stroke-width="1" fill="none" fill-rule="evenodd">
        <g id="Location" transform="translate(-987.000000, -1260.000000)">
            <g id="TTD-Map" transform="translate(0.000000, 1088.000000)">
                <g id="TTD" transform="translate(188.000000, 71.000000)">
                    <g id="TTD-Tabs">
                        <g id="Entertainment" transform="translate(754.000000, 81.000000)">
                            <g id="Icon-Ticket" transform="translate(45.000000, 20.000000)">
                                <g id="Group-14" stroke-width="1" fill-rule="evenodd">
                                    <g id="Group-3">
                                        <mask id="mask-2" fill="white">
                                            <use xlink:href="#path-1"></use>
                                        </mask>
                                        <g id="Clip-2"></g>
                                        <path d="M39.9049191,15.0939679 L38.8116426,13.5393453 C38.7930894,13.5128547 38.7714723,13.4897604 38.7483234,13.4688736 C38.7244936,13.4107981 38.6889191,13.3566283 38.6388766,13.3121377 C38.4630468,13.1564208 38.1941106,13.172383 38.0380255,13.3476283 C37.9884936,13.4031566 37.931983,13.4532509 37.8698553,13.4968925 C37.4007489,13.8251377 36.7304511,13.6830057 36.3765787,13.1795151 C36.022366,12.6758547 36.1161532,11.998817 36.5854298,11.6704019 C36.6233872,11.6439113 36.6627064,11.6201377 36.7027064,11.5999302 C36.8460255,11.5272509 36.9284085,11.3844396 36.9331745,11.2344962 C36.9936,11.1022132 36.9857702,10.9429302 36.8958979,10.8150623 L35.6186213,8.99893019 C35.5309617,8.87411887 35.3876426,8.81213774 35.2451745,8.82045849 C35.1028766,8.77681698 34.942366,8.80721321 34.8269617,8.91708113 C34.7922383,8.95019434 34.7541106,8.98126981 34.7141106,9.00928868 C34.244834,9.33770377 33.5750468,9.1955717 33.2206638,8.69191132 C32.8666213,8.18825094 32.9602383,7.51121321 33.4293447,7.18296792 C33.4638979,7.15885472 33.5006638,7.13643962 33.5387915,7.11640189 C33.7101957,7.02674151 33.7927489,6.83672264 33.755983,6.65638302 C33.7985362,6.53225094 33.7842383,6.3906283 33.7028766,6.27498679 L32.2274723,4.1766283 C32.2060255,4.14130755 32.1806638,4.10785472 32.1483234,4.07898679 C31.9723234,3.92326981 31.7033872,3.93923208 31.5474723,4.11464717 C31.4972596,4.17102453 31.4404085,4.22179811 31.3779404,4.26526981 C31.1541106,4.42217547 30.8776851,4.47753396 30.5988766,4.4211566 C30.3122383,4.36342075 30.0584511,4.19513774 29.8846638,3.94789245 C29.5306213,3.44423208 29.6244085,2.76736415 30.0936851,2.43877925 C30.1139404,2.42468491 30.135217,2.4141566 30.155983,2.40176038 C30.2422809,2.40311887 30.3301106,2.37934528 30.4061957,2.32585472 C30.5985362,2.19119434 30.6451745,1.92645849 30.5101957,1.73440189 L29.4458553,0.221043396 C29.3803234,0.12764717 29.2797277,0.0646471698 29.1670468,0.0459679245 C29.0540255,0.0274584906 28.9387915,0.0547981132 28.8465362,0.122043396 L0.187812766,20.180666 C0.0930042553,20.2443453 0.0279829787,20.3433453 0.00721702128,20.4554208 C-0.0135489362,20.5674962 0.0116425532,20.6833075 0.0773446809,20.776534 L1.14168511,22.2900623 C1.38100426,22.6748547 1.86508936,22.2625528 1.89266383,22.1784962 C2.11325957,22.0314396 2.38202553,21.9799868 2.65283404,22.0344962 C2.93930213,22.0924019 3.19291915,22.2605151 3.36704681,22.5079302 C3.72108936,23.0115906 3.62730213,23.6884585 3.15751489,24.0172132 C3.13811064,24.0307981 3.11734468,24.0425151 3.09691915,24.0547415 C3.04500426,24.0666283 2.57249362,24.3729679 2.99479149,24.9257038 L4.33436596,26.8304774 C4.37657872,26.8905906 4.43206809,26.9359302 4.49368511,26.9664962 C4.49930213,26.9734585 4.50372766,26.9812698 4.50985532,26.9878925 C4.66883404,27.1605906 4.93828085,27.1717981 5.11104681,27.0131943 C5.14151489,26.9853453 5.17470638,26.9586849 5.20942979,26.9344019 C5.67904681,26.6059868 6.34900426,26.7482887 6.70304681,27.2519491 C7.05725957,27.7554396 6.96347234,28.4324774 6.49453617,28.7607226 C6.45436596,28.7887415 6.41181277,28.8140434 6.36840851,28.8356094 C6.15802553,28.9405528 6.07274894,29.1954396 6.17777021,29.4051566 C6.18083404,29.4112698 6.18577021,29.4156849 6.18917447,29.4216283 C6.2016,29.467817 6.22066383,29.5131566 6.24994043,29.5547604 L7.52721702,31.3707226 C7.5629617,31.4214962 7.60891915,31.4598736 7.6589617,31.4895906 C7.81930213,31.6587226 8.08653617,31.6677226 8.25777021,31.5089491 C8.29147234,31.477534 8.32772766,31.4483264 8.36534468,31.4220057 C8.58934468,31.2651 8.86594043,31.2099113 9.14440851,31.2661189 C9.43121702,31.3240245 9.68483404,31.4921377 9.85879149,31.739383 C10.0327489,31.9867981 10.1049191,32.2819302 10.0618553,32.5706094 C10.0201532,32.8509679 9.87377021,33.0917604 9.6496,33.248666 C9.58781277,33.2919679 9.52125957,33.3277981 9.45181277,33.3554774 C9.2336,33.4422509 9.12721702,33.6891566 9.21402553,33.9070245 C9.24755745,33.9905717 10.5362383,35.8192698 10.5362383,35.8192698 C10.6021106,35.9128358 10.7028766,35.9758358 10.8157277,35.9943453 C10.8385362,35.9982509 10.8616851,35.9999491 10.8846638,35.9999491 C10.9745362,35.9999491 11.0630468,35.9714208 11.1365787,35.9175906 L13.6674723,34.0624019 C13.8569191,33.9234962 13.8976,33.6577415 13.7585362,33.4689113 C13.6194723,33.2800811 13.3529191,33.2391566 13.1636426,33.3780623 L10.983217,34.9763264 L10.2148766,33.8841 C10.5876426,33.5932132 10.8320681,33.1756472 10.9037277,32.6954208 C10.9789617,32.1907415 10.855217,31.6780811 10.5554723,31.2518547 C10.2558979,30.8256283 9.81470638,30.5350811 9.31325957,30.4338736 C8.86934468,30.3445528 8.42474894,30.4121377 8.04177021,30.6240623 L7.13589787,29.3362132 C7.85674894,28.7077415 7.9842383,27.5951377 7.39972766,26.7644208 C6.81555745,25.9333642 5.72364255,25.6742321 4.88585532,26.1362887 L3.79989787,24.5921943 C4.52040851,23.9638925 4.64789787,22.8514585 4.06372766,22.0204019 C3.76398298,21.5940057 3.32279149,21.3034585 2.82151489,21.2022509 C2.37742979,21.1127604 1.93266383,21.1805151 1.54985532,21.3924396 L1.02304681,20.6432321 L22.339983,5.82600566 L22.628834,6.23694906 C22.7115574,6.3546283 22.8436426,6.4176283 22.9776,6.4176283 C23.0620255,6.4176283 23.1473021,6.39266604 23.2215149,6.34053396 C23.4138553,6.20587358 23.4604936,5.94113774 23.3255149,5.74925094 L23.0364936,5.33847736 L28.998366,1.06296792 L29.5224511,1.80826981 C28.7415149,2.42417547 28.5854298,3.57855283 29.1878128,4.43542075 C29.4875574,4.86164717 29.9287489,5.15219434 30.4300255,5.25340189 C30.558366,5.27938302 30.6865362,5.29211887 30.8131745,5.29211887 C31.1558128,5.29211887 31.487217,5.19787358 31.7789617,5.01702453 L32.8584511,6.55211887 C32.0776851,7.16819434 31.9216,8.32274151 32.523983,9.17943962 C32.9146213,9.73472264 33.5316426,10.0346094 34.147983,10.0346094 C34.4827915,10.0346094 34.8169191,9.94511887 35.1147915,9.7610434 L36.014366,11.0397226 C35.2336,11.6556283 35.0773447,12.8101755 35.6797277,13.6670434 C36.070366,14.2223264 36.6873872,14.5222132 37.3038979,14.5222132 C37.6387064,14.5222132 37.9726638,14.4325528 38.2707064,14.2484774 L38.958366,15.2262509 L32.9277277,19.4037792 L32.5212596,18.8259113 C32.3864511,18.6338547 32.1212596,18.587666 31.9285787,18.7221566 C31.7362383,18.856817 31.6896,19.1215528 31.8245787,19.3136094 L32.2310468,19.8913075 L15.6586213,31.4906094 C15.4662809,31.6252698 15.4196426,31.8900057 15.5546213,32.0820623 C15.6375149,32.1997415 15.7694298,32.2627415 15.9033872,32.2627415 C15.9878128,32.2627415 16.0730894,32.2377792 16.1474723,32.1856472 L39.7932596,15.6905151 C39.8884085,15.6270057 39.9537702,15.5280057 39.9748766,15.4157604 C39.9958128,15.3033453 39.9706213,15.1873642 39.9049191,15.0939679" id="Fill-1" stroke="#8F6936" stroke-width="0.2" fill="#8F6936" mask="url(#mask-2)"></path>
                                    </g>
                                    <path d="M25.6078158,10.1052632 C25.6920061,10.1052632 25.777045,10.0797322 25.8512206,10.0264124 C26.0428552,9.88868422 26.0893635,9.61791713 25.954761,9.42165875 L24.6447204,7.51100527 C24.5102876,7.3147469 24.2454958,7.26750594 24.0538612,7.40506049 C23.8618871,7.54278871 23.8153788,7.8135558 23.9499813,8.00981418 L25.2600219,9.92046766 C25.3426845,10.0408279 25.4742317,10.1052632 25.6078158,10.1052632" id="Fill-4" stroke="#8F6936" stroke-width="0.2" fill="#8F6936"></path>
                                    <path d="M28.2743147,13.8947368 C28.3585045,13.8947368 28.4435431,13.8692066 28.5178881,13.8158883 C28.7095219,13.6781638 28.75603,13.4074041 28.621428,13.2111511 L27.3113933,11.3005497 C27.1769612,11.1042967 26.9123403,11.0568833 26.7203671,11.1946078 C26.5285636,11.3323323 26.4820555,11.603092 26.6166574,11.799345 L27.9266921,13.7099464 C28.0091846,13.8303033 28.1407312,13.8947368 28.2743147,13.8947368" id="Fill-6" stroke="#8F6936" stroke-width="0.2" fill="#8F6936"></path>
                                    <path d="M30.9409892,17.5578947 C31.0251794,17.5578947 31.1102184,17.5323649 31.184394,17.4790475 C31.3761984,17.3413254 31.4227067,17.0705704 31.2881042,16.8743207 L29.9780635,14.9637522 C29.843461,14.7673289 29.5790086,14.72009 29.3870346,14.8578121 C29.1952302,14.9955342 29.1487219,15.2662893 29.2833244,15.4625389 L30.5933651,17.3731075 C30.6758579,17.4934623 30.8074051,17.5578947 30.9409892,17.5578947" id="Fill-8" stroke="#8F6936" stroke-width="0.2" fill="#8F6936"></path>
                                    <path d="M21.5104233,9.65368661 C21.3762582,9.46252875 21.1121631,9.41630546 20.9205713,9.5504038 L6.275404,19.8197628 C6.08415101,19.9540304 6.03773532,20.2179942 6.17206979,20.4093214 C6.25439835,20.5268267 6.38585302,20.5894737 6.51917108,20.5894737 C6.60319365,20.5894737 6.68806322,20.5645842 6.76192176,20.5127735 L21.4070891,10.2432452 C21.5985115,10.1089775 21.6447578,9.84501378 21.5104233,9.65368661" id="Fill-10" stroke="#8F6936" stroke-width="0.2" fill="#8F6936"></path>
                                    <path d="M13.2491509,30.3157895 C13.3331735,30.3157895 13.4180431,30.2909003 13.4922405,30.2389208 L28.1372477,19.9698424 C28.3286702,19.8355762 28.3749165,19.571446 28.240582,19.3801209 C28.1064168,19.1887958 27.8423216,19.142573 27.6507297,19.2768392 L13.0057225,29.5460869 C12.8143,29.6803531 12.7678842,29.944314 12.9022188,30.1356391 C12.9845474,30.2529739 13.1158328,30.3157895 13.2491509,30.3157895" id="Fill-12" stroke="#8F6936" stroke-width="0.2" fill="#8F6936"></path>
                                </g>
                                <path d="M8.82453363,19.7736573 L8.74529553,20.0692363 L9.43367649,20.0692363 L9.35939077,19.7736573 C9.31316832,19.6127302 9.26859734,19.4419529 9.22567649,19.2613205 C9.18275564,19.080688 9.13983543,18.9066266 9.09691458,18.739131 L9.07710506,18.739131 C9.03748581,18.9099108 8.99704177,19.0847933 8.95577172,19.2637836 C8.91450168,19.442774 8.87075608,19.6127302 8.82453363,19.7736573 Z M7.65577172,21.3993415 L8.66605744,18.1873836 L9.54262887,18.1873836 L10.5529146,21.3993415 L9.78034315,21.3993415 L9.58224791,20.6357626 L8.5967241,20.6357626 L8.39862887,21.3993415 L7.65577172,21.3993415 Z M11.1108828,21.3993415 L11.1108828,18.1873836 L12.0221209,18.1873836 C12.2697411,18.1873836 12.4925961,18.2185833 12.6906923,18.2809836 C12.8887885,18.3433839 13.0588186,18.4394461 13.2007875,18.5691731 C13.3427565,18.6989001 13.4517078,18.86393 13.5276447,19.0642678 C13.6035816,19.2646057 13.6415494,19.5027086 13.6415494,19.7785836 C13.6415494,20.0544587 13.6035816,20.2942037 13.5276447,20.4978257 C13.4517078,20.7014478 13.3444073,20.8697619 13.2057399,21.0027731 C13.0670725,21.1357843 12.9011694,21.2351307 12.7080256,21.3008152 C12.5148818,21.3664997 12.2994554,21.3993415 12.0617399,21.3993415 L11.1108828,21.3993415 Z M11.8388828,20.8131099 L11.9775494,20.8131099 C12.1162168,20.8131099 12.2416758,20.795047 12.3539304,20.7589205 C12.4661849,20.722794 12.56193,20.6644998 12.6411685,20.5840363 C12.720407,20.5035727 12.7823111,20.397658 12.8268828,20.2662889 C12.8714544,20.1349198 12.8937399,19.972353 12.8937399,19.7785836 C12.8937399,19.5880985 12.8714544,19.4279948 12.8268828,19.2982678 C12.7823111,19.1685409 12.720407,19.0650893 12.6411685,18.9879099 C12.56193,18.9107306 12.4661849,18.8557206 12.3539304,18.8228784 C12.2416758,18.7900361 12.1162168,18.7736152 11.9775494,18.7736152 L11.8388828,18.7736152 L11.8388828,20.8131099 Z M14.4619938,21.3993415 L14.4619938,18.1873836 L15.2593271,18.1873836 L15.7793271,19.6160152 C15.8123432,19.7112578 15.8437079,19.8089621 15.8734224,19.909131 C15.9031368,20.0092999 15.9345016,20.1086463 15.9675176,20.2071731 L15.9873271,20.2071731 C16.0203432,20.1086463 16.0508825,20.0092999 16.0789462,19.909131 C16.1070098,19.8089621 16.1375492,19.7112578 16.1705652,19.6160152 L16.6806605,18.1873836 L17.4730414,18.1873836 L17.4730414,21.3993415 L16.8094224,21.3993415 L16.8094224,20.221952 C16.8094224,20.1431306 16.8127239,20.0560999 16.8193271,19.9608573 C16.8259303,19.8656147 16.8341842,19.7695525 16.844089,19.6726678 C16.8539938,19.5757831 16.8638985,19.480542 16.8738033,19.3869415 C16.8837081,19.293341 16.8936128,19.2071314 16.9035176,19.1283099 L16.8837081,19.1283099 L16.6212319,19.8918889 L16.1606605,21.1185415 L15.7595176,21.1185415 L15.2989462,19.8918889 L15.0414224,19.1283099 L15.0216128,19.1283099 C15.0315177,19.2071314 15.0414223,19.293341 15.0513271,19.3869415 C15.0612319,19.480542 15.0711366,19.5757831 15.0810414,19.6726678 C15.0909462,19.7695525 15.0992001,19.8656147 15.1058033,19.9608573 C15.1124065,20.0560999 15.1157081,20.1431306 15.1157081,20.221952 L15.1157081,21.3993415 L14.4619938,21.3993415 Z M18.4420572,21.3993415 L18.4420572,18.1873836 L19.1700572,18.1873836 L19.1700572,21.3993415 L18.4420572,21.3993415 Z M20.7680254,21.3993415 L20.7680254,18.7982468 L19.8815492,18.7982468 L19.8815492,18.1873836 L22.387454,18.1873836 L22.387454,18.7982468 L21.5009778,18.7982468 L21.5009778,21.3993415 L20.7680254,21.3993415 Z M24.2611046,21.3993415 L24.2611046,20.8131099 L24.9445332,20.8131099 L24.9445332,19.005152 L24.3551998,19.005152 L24.3551998,18.5568573 C24.5268832,18.524015 24.6721516,18.4846049 24.7910094,18.4386257 C24.9098671,18.3926465 25.0254215,18.3368155 25.137676,18.271131 L25.6725332,18.271131 L25.6725332,20.8131099 L26.2618665,20.8131099 L26.2618665,21.3993415 L24.2611046,21.3993415 Z" id="ADMIT1" stroke="#8F6936" stroke-width="0.2" fill="#8F6936" fill-rule="nonzero" transform="translate(16.958819, 19.793363) rotate(-35.000000) translate(-16.958819, -19.793363) "></path>
                            </g>
                        </g>
                    </g>
                </g>
            </g>
        </g>
    </g>
</svg>