<?xml version="1.0" encoding="UTF-8"?>
<svg width="32px" height="25px" viewBox="0 0 32 25" version="1.1" xmlns="http://www.w3.org/2000/svg" xmlns:xlink="http://www.w3.org/1999/xlink">
    <!-- Generator: Sketch 53.2 (72643) - https://sketchapp.com -->
    <title>Icon-shoppingDfault</title>
    <desc>Created with Sketch.</desc>
    <g id="Desktop-1440px" stroke="none" stroke-width="1" fill="none" fill-rule="evenodd">
        <g id="Location" transform="translate(-1251.000000, -1267.000000)" fill="#8F6936">
            <g id="TTD-Map" transform="translate(0.000000, 1088.000000)">
                <g id="TTD" transform="translate(188.000000, 71.000000)">
                    <g id="TTD-Tabs">
                        <g id="Shopping" transform="translate(1014.000000, 81.000000)">
                            <g id="Icon-shop" transform="translate(49.000000, 24.000000)">
                                <g id="Group-12" transform="translate(0.000000, 3.796610)">
                                    <polygon id="Stroke-1" fill-rule="nonzero" points="5.33333333 21.4779661 5.33333333 18.440678 32 18.440678 32 21.4779661"></polygon>
                                    <path d="M6.20408163,4.23050847 C6.20408163,3.69116404 5.74131246,3.25423729 5.17006803,3.25423729 C4.59882359,3.25423729 4.13605442,3.69116404 4.13605442,4.23050847 C4.13605442,4.76985291 4.59882359,5.20677966 5.17006803,5.20677966 C5.74131246,5.20677966 6.20408163,4.76985291 6.20408163,4.23050847 Z M7.40136054,4.23050847 C7.40136054,5.42885377 6.40254986,6.4 5.17006803,6.4 C3.9375862,6.4 2.93877551,5.42885377 2.93877551,4.23050847 C2.93877551,3.03216318 3.9375862,2.06101695 5.17006803,2.06101695 C6.40254986,2.06101695 7.40136054,3.03216318 7.40136054,4.23050847 Z" id="Stroke-3" fill-rule="nonzero"></path>
                                    <path d="M7.85035354,6.18778131 C7.55153709,6.04730989 7.42591981,5.69690207 7.56977951,5.40512353 C7.7136392,5.113345 8.07249912,4.99068634 8.37131557,5.13115776 C8.50593079,5.19443938 8.64881379,5.22730188 8.79545186,5.22730188 C9.34384789,5.22730188 9.79221281,4.78288308 9.79221281,4.23036932 C9.79221281,3.6781065 9.34382106,3.23371507 8.79545186,3.23371507 C8.64881379,3.23371507 8.50593079,3.26657757 8.37131557,3.32985919 C8.07249912,3.47033061 7.7136392,3.34767195 7.56977951,3.05589342 C7.42591981,2.76411488 7.55153709,2.41370706 7.85035354,2.27323564 C8.14499035,2.13472904 8.4654835,2.06101695 8.79545186,2.06101695 C10.0111376,2.06101695 10.9931973,3.03431519 10.9931973,4.23036932 C10.9931973,5.42664305 10.0111976,6.4 8.79545186,6.4 C8.4654835,6.4 8.14499035,6.32628791 7.85035354,6.18778131 Z" id="Stroke-4" fill-rule="nonzero"></path>
                                    <path d="M3.5451895,13.2338983 C3.2102763,13.2338983 2.93877551,12.9667868 2.93877551,12.6372881 C2.93877551,12.3077894 3.2102763,12.040678 3.5451895,12.040678 L6.57725948,12.040678 C6.91217268,12.040678 7.18367347,12.3077894 7.18367347,12.6372881 C7.18367347,12.9667868 6.91217268,13.2338983 6.57725948,13.2338983 L3.5451895,13.2338983 Z" id="Stroke-5" fill-rule="nonzero"></path>
                                    <path d="M9.08066084,13.2338983 C8.75433515,13.2338983 8.48979592,12.9667868 8.48979592,12.6372881 C8.48979592,12.3077894 8.75433515,12.040678 9.08066084,12.040678 L12.0349854,12.040678 C12.3613111,12.040678 12.6258503,12.3077894 12.6258503,12.6372881 C12.6258503,12.9667868 12.3613111,13.2338983 12.0349854,13.2338983 L9.08066084,13.2338983 Z" id="Stroke-6" fill-rule="nonzero"></path>
                                    <path d="M14.5228377,13.2338983 C14.196512,13.2338983 13.9319728,12.9667868 13.9319728,12.6372881 C13.9319728,12.3077894 14.196512,12.040678 14.5228377,12.040678 L17.4771623,12.040678 C17.803488,12.040678 18.0680272,12.3077894 18.0680272,12.6372881 C18.0680272,12.9667868 17.803488,13.2338983 17.4771623,13.2338983 L14.5228377,13.2338983 Z" id="Stroke-7" fill-rule="nonzero"></path>
                                    <path d="M20.0738581,13.2338983 C19.7475324,13.2338983 19.4829932,12.9667868 19.4829932,12.6372881 C19.4829932,12.3077894 19.7475324,12.040678 20.0738581,12.040678 L23.0281827,12.040678 C23.3545084,12.040678 23.6190476,12.3077894 23.6190476,12.6372881 C23.6190476,12.9667868 23.3545084,13.2338983 23.0281827,13.2338983 L20.0738581,13.2338983 Z" id="Stroke-8" fill-rule="nonzero"></path>
                                    <path d="M24.5571681,15.8372881 C25.0613363,15.8372881 25.4693878,15.4306759 25.4693878,14.9307668 L25.4693878,2.09974171 C25.4693878,1.59966544 25.0614512,1.19322034 24.5571681,1.19322034 L2.10978136,1.19322034 C1.60504756,1.19322034 1.19727891,1.59955079 1.19727891,2.10002347 L1.19727891,14.9307668 C1.19727891,15.4307906 1.60516239,15.8372881 2.1094986,15.8372881 L24.5571681,15.8372881 Z M24.5634595,17.0305085 L2.10320721,17.0305085 C0.942182476,17.0305085 0,16.0917618 0,14.9327607 L0,2.09802962 C0,0.938544842 0.942101961,0 2.10349014,0 L24.5634595,0 C25.7243623,0 26.6666667,0.938624822 26.6666667,2.09774776 L26.6666667,14.9327607 C26.6666667,16.0916818 25.7242818,17.0305085 24.5634595,17.0305085 Z" id="Stroke-9" fill-rule="nonzero"></path>
                                    <path d="M26.4125789,7.91636838 C26.083838,7.91636838 25.8173408,7.64976634 25.8173408,7.32089605 C25.8173408,6.99202577 26.083838,6.72542373 26.4125789,6.72542373 L29.6936555,6.72542373 C30.9670002,6.72542373 32,7.75465908 32,9.02557214 L32,21.4560657 C32,22.7269555 30.9670239,23.7559322 29.6936555,23.7559322 L7.63967785,23.7559322 C6.36650983,23.7559322 5.33333333,22.7268735 5.33333333,21.4560657 L5.33333333,16.6412483 C5.33333333,16.3123781 5.59983051,16.045776 5.92857143,16.045776 C6.25731235,16.045776 6.52380952,16.3123781 6.52380952,16.6412483 L6.52380952,21.4560657 C6.52380952,22.0679605 7.02282541,22.5649876 7.63967785,22.5649876 L29.6936555,22.5649876 C30.310678,22.5649876 30.8095238,22.0680732 30.8095238,21.4560657 L30.8095238,9.02557214 C30.8095238,8.41348027 30.3105937,7.91636838 29.6936555,7.91636838 L26.4125789,7.91636838 Z" id="Stroke-10" fill-rule="nonzero"></path>
                                    <path d="M22.4217687,3.25423729 L19.3741497,3.25423729 L19.3741497,5.20677966 L22.4217687,5.20677966 L22.4217687,3.25423729 Z M22.4775876,6.4 L19.3183307,6.4 C18.6864795,6.4 18.1768707,5.8893474 18.1768707,5.26288379 L18.1768707,3.19868977 C18.1768707,2.571846 18.6863001,2.06101695 19.3183307,2.06101695 L22.4775876,2.06101695 C23.1095286,2.06101695 23.6190476,2.57175779 23.6190476,3.19841147 L23.6190476,5.26260548 C23.6190476,5.88925916 23.1095286,6.4 22.4775876,6.4 Z" id="Stroke-11" fill-rule="nonzero"></path>
                                </g>
                            </g>
                        </g>
                    </g>
                </g>
            </g>
        </g>
    </g>
</svg>